<?xml version="1.0" standalone="no"?>
<!DOCTYPE svg PUBLIC "-//W3C//DTD SVG 20010904//EN"
 "http://www.w3.org/TR/2001/REC-SVG-20010904/DTD/svg10.dtd">
<svg version="1.0" xmlns="http://www.w3.org/2000/svg"
 width="288.000000pt" height="288.000000pt" viewBox="0 0 288.000000 288.000000"
 preserveAspectRatio="xMidYMid meet">
<metadata>
Created by potrace 1.16, written by Peter Selinger 2001-2019
</metadata>
<g transform="translate(0.000000,288.000000) scale(0.100000,-0.100000)"
fill="#000000" stroke="none">
<path d="M0 1440 l0 -1440 1440 0 1440 0 0 1440 0 1440 -1440 0 -1440 0 0
-1440z m1044 1082 c27 -7 90 -32 140 -56 70 -34 111 -63 176 -125 47 -44 86
-81 88 -81 2 0 35 32 75 71 74 73 205 159 242 159 12 0 25 4 30 9 27 27 111
35 386 38 226 3 288 1 291 -9 12 -32 -26 -121 -75 -174 -78 -86 -103 -94 -284
-94 l-154 0 -92 -44 c-109 -52 -177 -117 -226 -216 l-33 -65 -7 -325 c-8 -370
-4 -350 -98 -441 -70 -69 -112 -91 -161 -87 l-37 3 -3 405 c-2 444 3 400 -64
537 -33 67 -143 167 -208 189 -30 10 -64 24 -75 31 -14 9 -64 13 -169 13 -139
0 -151 1 -180 23 -17 12 -48 31 -70 42 -23 12 -50 38 -66 64 -28 45 -47 122
-35 141 9 15 545 7 609 -8z m46 -588 c50 -29 84 -93 75 -145 -8 -49 -46 -95
-92 -114 -41 -17 -326 -21 -365 -6 -13 5 -35 12 -49 15 -65 14 -169 146 -169
215 0 66 -16 62 289 59 257 -3 278 -4 311 -24z m1314 13 c18 -13 18 -16 1 -72
-13 -48 -28 -70 -78 -120 -87 -86 -117 -95 -325 -95 l-165 0 -48 49 c-45 44
-49 52 -49 97 0 67 47 132 105 147 11 2 137 5 281 6 202 1 264 -2 278 -12z
m-746 -1243 c35 -23 44 -60 39 -154 -11 -192 -107 -470 -162 -470 -8 0 -14 48
-19 164 -4 102 -16 216 -31 302 -14 77 -25 149 -25 162 0 27 21 29 45 2 20
-22 32 -18 45 16 10 24 10 24 47 9 21 -9 48 -23 61 -31z m-288 -17 c0 -23 -7
-69 -15 -102 -9 -34 -20 -161 -27 -292 -9 -175 -15 -233 -24 -233 -14 0 -101
139 -140 224 -58 127 -82 286 -51 345 6 13 38 37 69 53 45 24 61 27 77 19 28
-15 34 -14 66 13 16 14 32 23 37 20 4 -3 8 -24 8 -47z"/>
</g>
</svg>
